<svg width="13" height="16" viewBox="0 0 13 16" fill="none" xmlns="http://www.w3.org/2000/svg">
<path fill-rule="evenodd" clip-rule="evenodd" d="M6.26 0.640015C3.07883 0.640015 0.5 3.21884 0.5 6.40001C0.5 8.30821 1.04623 9.08637 3.65899 12.8085L3.65903 12.8086C4.22616 13.6165 4.89064 14.5631 5.66804 15.6901C5.95406 16.1033 6.56591 16.1033 6.85199 15.6901C7.62941 14.5631 8.29391 13.6164 8.86104 12.8085C11.4738 9.08636 12.02 8.3082 12.02 6.40001C12.02 3.21884 9.44117 0.640015 6.26 0.640015ZM3.38 6.40001C3.38 4.81196 4.67195 3.52001 6.26 3.52001C7.84805 3.52001 9.14 4.81196 9.14 6.40001C9.14 7.98806 7.84805 9.28001 6.26 9.28001C4.67195 9.28001 3.38 7.98806 3.38 6.40001ZM4.34 6.40001C4.34 7.45871 5.2013 8.32001 6.26 8.32001C7.3187 8.32001 8.18 7.45871 8.18 6.40001C8.18 5.34131 7.3187 4.48001 6.26 4.48001C5.2013 4.48001 4.34 5.34131 4.34 6.40001ZM4.39197 12.1798C4.91791 12.9296 5.53548 13.8102 6.26 14.8579C6.98443 13.8103 7.60193 12.9299 8.12782 12.1801C10.6358 8.60419 11.06 7.99935 11.06 6.40001C11.06 5.11787 10.5607 3.9125 9.65411 3.0059C8.74751 2.0993 7.54214 1.60001 6.26 1.60001C4.97786 1.60001 3.77249 2.0993 2.86589 3.0059C1.95929 3.9125 1.46 5.11787 1.46 6.40001C1.46 7.99938 1.88444 8.60454 4.39197 12.1798Z" fill="#677887"/>
</svg>
