<svg width="22" height="17" viewBox="0 0 22 17" fill="none" xmlns="http://www.w3.org/2000/svg">
<path fill-rule="evenodd" clip-rule="evenodd" d="M0.752441 14.33V2.81C0.752441 1.75 1.61244 0.889999 2.67244 0.889999H7.95244C8.21644 0.889999 8.43244 1.106 8.43244 1.37V1.69C8.43244 1.954 8.21644 2.17 7.95244 2.17H2.67244C2.32044 2.17 2.03244 2.458 2.03244 2.81V14.33C2.03244 14.682 2.32044 14.97 2.67244 14.97H7.95244C8.21644 14.97 8.43244 15.186 8.43244 15.45V15.77C8.43244 16.034 8.21644 16.25 7.95244 16.25H2.67244C1.61244 16.25 0.752441 15.39 0.752441 14.33ZM5.87244 7.014V10.122C5.87244 11.182 6.73244 12.042 7.79244 12.042H12.2724V14.518C12.2724 15.938 13.9924 16.658 15.0004 15.65L20.6684 9.93C21.4204 9.178 21.4204 7.962 20.6684 7.21L15.0004 1.486C13.9964 0.481999 12.2724 1.194 12.2724 2.618V5.094H7.79244C6.73244 5.094 5.87244 5.958 5.87244 7.014ZM7.15244 7.014C7.15244 6.662 7.44044 6.374 7.79244 6.374H13.5524V2.618C13.5524 2.334 13.8964 2.19 14.0964 2.39L19.7604 8.114C20.0124 8.366 20.0124 8.77 19.7604 9.022L14.0964 14.746C13.8964 14.946 13.5524 14.806 13.5524 14.518V10.762H7.79244C7.44044 10.762 7.15244 10.474 7.15244 10.122V7.014Z" fill="#ED4C78"/>
</svg>
